<?xml version="1.0" encoding="utf-8" standalone="no"?>
<!DOCTYPE svg PUBLIC "-//W3C//DTD SVG 1.1//EN"
  "http://www.w3.org/Graphics/SVG/1.1/DTD/svg11.dtd">
<!-- Created with matplotlib (https://matplotlib.org/) -->
<svg height="264.131875pt" version="1.1" viewBox="0 0 352.7 264.131875" width="352.7pt" xmlns="http://www.w3.org/2000/svg" xmlns:xlink="http://www.w3.org/1999/xlink">
 <defs>
  <style type="text/css">
*{stroke-linecap:butt;stroke-linejoin:round;white-space:pre;}
  </style>
 </defs>
 <g id="figure_1">
  <g id="patch_1">
   <path d="M 0 264.131875 
L 352.7 264.131875 
L 352.7 0 
L 0 0 
z
" style="fill:none;"/>
  </g>
  <g id="axes_1">
   <g id="patch_2">
    <path d="M 10.7 224.64 
L 345.5 224.64 
L 345.5 7.2 
L 10.7 7.2 
z
" style="fill:none;"/>
   </g>
   <g id="matplotlib.axis_1">
    <g id="xtick_1">
     <g id="line2d_1">
      <path clip-path="url(#pea34842d70)" d="M 42.0875 224.64 
L 42.0875 7.2 
" style="fill:none;stroke:#ffffff;stroke-linecap:square;stroke-width:0.8;"/>
     </g>
     <g id="line2d_2">
      <defs>
       <path d="M 0 0 
L 0 3.5 
" id="mdbd5dc801c" style="stroke:#555555;stroke-width:0.8;"/>
      </defs>
      <g>
       <use style="fill:#555555;stroke:#555555;stroke-width:0.8;" x="42.0875" xlink:href="#mdbd5dc801c" y="224.64"/>
      </g>
     </g>
     <g id="text_1">
      <!-- 55 -->
      <defs>
       <path d="M 10.796875 72.90625 
L 49.515625 72.90625 
L 49.515625 64.59375 
L 19.828125 64.59375 
L 19.828125 46.734375 
Q 21.96875 47.46875 24.109375 47.828125 
Q 26.265625 48.1875 28.421875 48.1875 
Q 40.625 48.1875 47.75 41.5 
Q 54.890625 34.8125 54.890625 23.390625 
Q 54.890625 11.625 47.5625 5.09375 
Q 40.234375 -1.421875 26.90625 -1.421875 
Q 22.3125 -1.421875 17.546875 -0.640625 
Q 12.796875 0.140625 7.71875 1.703125 
L 7.71875 11.625 
Q 12.109375 9.234375 16.796875 8.0625 
Q 21.484375 6.890625 26.703125 6.890625 
Q 35.15625 6.890625 40.078125 11.328125 
Q 45.015625 15.765625 45.015625 23.390625 
Q 45.015625 31 40.078125 35.4375 
Q 35.15625 39.890625 26.703125 39.890625 
Q 22.75 39.890625 18.8125 39.015625 
Q 14.890625 38.140625 10.796875 36.28125 
z
" id="DejaVuSans-53"/>
      </defs>
      <g style="fill:#555555;" transform="translate(35.725 239.238438)scale(0.1 -0.1)">
       <use xlink:href="#DejaVuSans-53"/>
       <use x="63.623047" xlink:href="#DejaVuSans-53"/>
      </g>
     </g>
    </g>
    <g id="xtick_2">
     <g id="line2d_3">
      <path clip-path="url(#pea34842d70)" d="M 94.4 224.64 
L 94.4 7.2 
" style="fill:none;stroke:#ffffff;stroke-linecap:square;stroke-width:0.8;"/>
     </g>
     <g id="line2d_4">
      <g>
       <use style="fill:#555555;stroke:#555555;stroke-width:0.8;" x="94.4" xlink:href="#mdbd5dc801c" y="224.64"/>
      </g>
     </g>
     <g id="text_2">
      <!-- 60 -->
      <defs>
       <path d="M 33.015625 40.375 
Q 26.375 40.375 22.484375 35.828125 
Q 18.609375 31.296875 18.609375 23.390625 
Q 18.609375 15.53125 22.484375 10.953125 
Q 26.375 6.390625 33.015625 6.390625 
Q 39.65625 6.390625 43.53125 10.953125 
Q 47.40625 15.53125 47.40625 23.390625 
Q 47.40625 31.296875 43.53125 35.828125 
Q 39.65625 40.375 33.015625 40.375 
z
M 52.59375 71.296875 
L 52.59375 62.3125 
Q 48.875 64.0625 45.09375 64.984375 
Q 41.3125 65.921875 37.59375 65.921875 
Q 27.828125 65.921875 22.671875 59.328125 
Q 17.53125 52.734375 16.796875 39.40625 
Q 19.671875 43.65625 24.015625 45.921875 
Q 28.375 48.1875 33.59375 48.1875 
Q 44.578125 48.1875 50.953125 41.515625 
Q 57.328125 34.859375 57.328125 23.390625 
Q 57.328125 12.15625 50.6875 5.359375 
Q 44.046875 -1.421875 33.015625 -1.421875 
Q 20.359375 -1.421875 13.671875 8.265625 
Q 6.984375 17.96875 6.984375 36.375 
Q 6.984375 53.65625 15.1875 63.9375 
Q 23.390625 74.21875 37.203125 74.21875 
Q 40.921875 74.21875 44.703125 73.484375 
Q 48.484375 72.75 52.59375 71.296875 
z
" id="DejaVuSans-54"/>
       <path d="M 31.78125 66.40625 
Q 24.171875 66.40625 20.328125 58.90625 
Q 16.5 51.421875 16.5 36.375 
Q 16.5 21.390625 20.328125 13.890625 
Q 24.171875 6.390625 31.78125 6.390625 
Q 39.453125 6.390625 43.28125 13.890625 
Q 47.125 21.390625 47.125 36.375 
Q 47.125 51.421875 43.28125 58.90625 
Q 39.453125 66.40625 31.78125 66.40625 
z
M 31.78125 74.21875 
Q 44.046875 74.21875 50.515625 64.515625 
Q 56.984375 54.828125 56.984375 36.375 
Q 56.984375 17.96875 50.515625 8.265625 
Q 44.046875 -1.421875 31.78125 -1.421875 
Q 19.53125 -1.421875 13.0625 8.265625 
Q 6.59375 17.96875 6.59375 36.375 
Q 6.59375 54.828125 13.0625 64.515625 
Q 19.53125 74.21875 31.78125 74.21875 
z
" id="DejaVuSans-48"/>
      </defs>
      <g style="fill:#555555;" transform="translate(88.0375 239.238438)scale(0.1 -0.1)">
       <use xlink:href="#DejaVuSans-54"/>
       <use x="63.623047" xlink:href="#DejaVuSans-48"/>
      </g>
     </g>
    </g>
    <g id="xtick_3">
     <g id="line2d_5">
      <path clip-path="url(#pea34842d70)" d="M 146.7125 224.64 
L 146.7125 7.2 
" style="fill:none;stroke:#ffffff;stroke-linecap:square;stroke-width:0.8;"/>
     </g>
     <g id="line2d_6">
      <g>
       <use style="fill:#555555;stroke:#555555;stroke-width:0.8;" x="146.7125" xlink:href="#mdbd5dc801c" y="224.64"/>
      </g>
     </g>
     <g id="text_3">
      <!-- 65 -->
      <g style="fill:#555555;" transform="translate(140.35 239.238438)scale(0.1 -0.1)">
       <use xlink:href="#DejaVuSans-54"/>
       <use x="63.623047" xlink:href="#DejaVuSans-53"/>
      </g>
     </g>
    </g>
    <g id="xtick_4">
     <g id="line2d_7">
      <path clip-path="url(#pea34842d70)" d="M 199.025 224.64 
L 199.025 7.2 
" style="fill:none;stroke:#ffffff;stroke-linecap:square;stroke-width:0.8;"/>
     </g>
     <g id="line2d_8">
      <g>
       <use style="fill:#555555;stroke:#555555;stroke-width:0.8;" x="199.025" xlink:href="#mdbd5dc801c" y="224.64"/>
      </g>
     </g>
     <g id="text_4">
      <!-- 70 -->
      <defs>
       <path d="M 8.203125 72.90625 
L 55.078125 72.90625 
L 55.078125 68.703125 
L 28.609375 0 
L 18.3125 0 
L 43.21875 64.59375 
L 8.203125 64.59375 
z
" id="DejaVuSans-55"/>
      </defs>
      <g style="fill:#555555;" transform="translate(192.6625 239.238438)scale(0.1 -0.1)">
       <use xlink:href="#DejaVuSans-55"/>
       <use x="63.623047" xlink:href="#DejaVuSans-48"/>
      </g>
     </g>
    </g>
    <g id="xtick_5">
     <g id="line2d_9">
      <path clip-path="url(#pea34842d70)" d="M 251.3375 224.64 
L 251.3375 7.2 
" style="fill:none;stroke:#ffffff;stroke-linecap:square;stroke-width:0.8;"/>
     </g>
     <g id="line2d_10">
      <g>
       <use style="fill:#555555;stroke:#555555;stroke-width:0.8;" x="251.3375" xlink:href="#mdbd5dc801c" y="224.64"/>
      </g>
     </g>
     <g id="text_5">
      <!-- 75 -->
      <g style="fill:#555555;" transform="translate(244.975 239.238438)scale(0.1 -0.1)">
       <use xlink:href="#DejaVuSans-55"/>
       <use x="63.623047" xlink:href="#DejaVuSans-53"/>
      </g>
     </g>
    </g>
    <g id="xtick_6">
     <g id="line2d_11">
      <path clip-path="url(#pea34842d70)" d="M 303.65 224.64 
L 303.65 7.2 
" style="fill:none;stroke:#ffffff;stroke-linecap:square;stroke-width:0.8;"/>
     </g>
     <g id="line2d_12">
      <g>
       <use style="fill:#555555;stroke:#555555;stroke-width:0.8;" x="303.65" xlink:href="#mdbd5dc801c" y="224.64"/>
      </g>
     </g>
     <g id="text_6">
      <!-- 80 -->
      <defs>
       <path d="M 31.78125 34.625 
Q 24.75 34.625 20.71875 30.859375 
Q 16.703125 27.09375 16.703125 20.515625 
Q 16.703125 13.921875 20.71875 10.15625 
Q 24.75 6.390625 31.78125 6.390625 
Q 38.8125 6.390625 42.859375 10.171875 
Q 46.921875 13.96875 46.921875 20.515625 
Q 46.921875 27.09375 42.890625 30.859375 
Q 38.875 34.625 31.78125 34.625 
z
M 21.921875 38.8125 
Q 15.578125 40.375 12.03125 44.71875 
Q 8.5 49.078125 8.5 55.328125 
Q 8.5 64.0625 14.71875 69.140625 
Q 20.953125 74.21875 31.78125 74.21875 
Q 42.671875 74.21875 48.875 69.140625 
Q 55.078125 64.0625 55.078125 55.328125 
Q 55.078125 49.078125 51.53125 44.71875 
Q 48 40.375 41.703125 38.8125 
Q 48.828125 37.15625 52.796875 32.3125 
Q 56.78125 27.484375 56.78125 20.515625 
Q 56.78125 9.90625 50.3125 4.234375 
Q 43.84375 -1.421875 31.78125 -1.421875 
Q 19.734375 -1.421875 13.25 4.234375 
Q 6.78125 9.90625 6.78125 20.515625 
Q 6.78125 27.484375 10.78125 32.3125 
Q 14.796875 37.15625 21.921875 38.8125 
z
M 18.3125 54.390625 
Q 18.3125 48.734375 21.84375 45.5625 
Q 25.390625 42.390625 31.78125 42.390625 
Q 38.140625 42.390625 41.71875 45.5625 
Q 45.3125 48.734375 45.3125 54.390625 
Q 45.3125 60.0625 41.71875 63.234375 
Q 38.140625 66.40625 31.78125 66.40625 
Q 25.390625 66.40625 21.84375 63.234375 
Q 18.3125 60.0625 18.3125 54.390625 
z
" id="DejaVuSans-56"/>
      </defs>
      <g style="fill:#555555;" transform="translate(297.2875 239.238438)scale(0.1 -0.1)">
       <use xlink:href="#DejaVuSans-56"/>
       <use x="63.623047" xlink:href="#DejaVuSans-48"/>
      </g>
     </g>
    </g>
    <g id="text_7">
     <!-- Height (inches) -->
     <defs>
      <path d="M 9.8125 72.90625 
L 19.671875 72.90625 
L 19.671875 43.015625 
L 55.515625 43.015625 
L 55.515625 72.90625 
L 65.375 72.90625 
L 65.375 0 
L 55.515625 0 
L 55.515625 34.71875 
L 19.671875 34.71875 
L 19.671875 0 
L 9.8125 0 
z
" id="DejaVuSans-72"/>
      <path d="M 56.203125 29.59375 
L 56.203125 25.203125 
L 14.890625 25.203125 
Q 15.484375 15.921875 20.484375 11.0625 
Q 25.484375 6.203125 34.421875 6.203125 
Q 39.59375 6.203125 44.453125 7.46875 
Q 49.3125 8.734375 54.109375 11.28125 
L 54.109375 2.78125 
Q 49.265625 0.734375 44.1875 -0.34375 
Q 39.109375 -1.421875 33.890625 -1.421875 
Q 20.796875 -1.421875 13.15625 6.1875 
Q 5.515625 13.8125 5.515625 26.8125 
Q 5.515625 40.234375 12.765625 48.109375 
Q 20.015625 56 32.328125 56 
Q 43.359375 56 49.78125 48.890625 
Q 56.203125 41.796875 56.203125 29.59375 
z
M 47.21875 32.234375 
Q 47.125 39.59375 43.09375 43.984375 
Q 39.0625 48.390625 32.421875 48.390625 
Q 24.90625 48.390625 20.390625 44.140625 
Q 15.875 39.890625 15.1875 32.171875 
z
" id="DejaVuSans-101"/>
      <path d="M 9.421875 54.6875 
L 18.40625 54.6875 
L 18.40625 0 
L 9.421875 0 
z
M 9.421875 75.984375 
L 18.40625 75.984375 
L 18.40625 64.59375 
L 9.421875 64.59375 
z
" id="DejaVuSans-105"/>
      <path d="M 45.40625 27.984375 
Q 45.40625 37.75 41.375 43.109375 
Q 37.359375 48.484375 30.078125 48.484375 
Q 22.859375 48.484375 18.828125 43.109375 
Q 14.796875 37.75 14.796875 27.984375 
Q 14.796875 18.265625 18.828125 12.890625 
Q 22.859375 7.515625 30.078125 7.515625 
Q 37.359375 7.515625 41.375 12.890625 
Q 45.40625 18.265625 45.40625 27.984375 
z
M 54.390625 6.78125 
Q 54.390625 -7.171875 48.1875 -13.984375 
Q 42 -20.796875 29.203125 -20.796875 
Q 24.46875 -20.796875 20.265625 -20.09375 
Q 16.0625 -19.390625 12.109375 -17.921875 
L 12.109375 -9.1875 
Q 16.0625 -11.328125 19.921875 -12.34375 
Q 23.78125 -13.375 27.78125 -13.375 
Q 36.625 -13.375 41.015625 -8.765625 
Q 45.40625 -4.15625 45.40625 5.171875 
L 45.40625 9.625 
Q 42.625 4.78125 38.28125 2.390625 
Q 33.9375 0 27.875 0 
Q 17.828125 0 11.671875 7.65625 
Q 5.515625 15.328125 5.515625 27.984375 
Q 5.515625 40.671875 11.671875 48.328125 
Q 17.828125 56 27.875 56 
Q 33.9375 56 38.28125 53.609375 
Q 42.625 51.21875 45.40625 46.390625 
L 45.40625 54.6875 
L 54.390625 54.6875 
z
" id="DejaVuSans-103"/>
      <path d="M 54.890625 33.015625 
L 54.890625 0 
L 45.90625 0 
L 45.90625 32.71875 
Q 45.90625 40.484375 42.875 44.328125 
Q 39.84375 48.1875 33.796875 48.1875 
Q 26.515625 48.1875 22.3125 43.546875 
Q 18.109375 38.921875 18.109375 30.90625 
L 18.109375 0 
L 9.078125 0 
L 9.078125 75.984375 
L 18.109375 75.984375 
L 18.109375 46.1875 
Q 21.34375 51.125 25.703125 53.5625 
Q 30.078125 56 35.796875 56 
Q 45.21875 56 50.046875 50.171875 
Q 54.890625 44.34375 54.890625 33.015625 
z
" id="DejaVuSans-104"/>
      <path d="M 18.3125 70.21875 
L 18.3125 54.6875 
L 36.8125 54.6875 
L 36.8125 47.703125 
L 18.3125 47.703125 
L 18.3125 18.015625 
Q 18.3125 11.328125 20.140625 9.421875 
Q 21.96875 7.515625 27.59375 7.515625 
L 36.8125 7.515625 
L 36.8125 0 
L 27.59375 0 
Q 17.1875 0 13.234375 3.875 
Q 9.28125 7.765625 9.28125 18.015625 
L 9.28125 47.703125 
L 2.6875 47.703125 
L 2.6875 54.6875 
L 9.28125 54.6875 
L 9.28125 70.21875 
z
" id="DejaVuSans-116"/>
      <path id="DejaVuSans-32"/>
      <path d="M 31 75.875 
Q 24.46875 64.65625 21.28125 53.65625 
Q 18.109375 42.671875 18.109375 31.390625 
Q 18.109375 20.125 21.3125 9.0625 
Q 24.515625 -2 31 -13.1875 
L 23.1875 -13.1875 
Q 15.875 -1.703125 12.234375 9.375 
Q 8.59375 20.453125 8.59375 31.390625 
Q 8.59375 42.28125 12.203125 53.3125 
Q 15.828125 64.359375 23.1875 75.875 
z
" id="DejaVuSans-40"/>
      <path d="M 54.890625 33.015625 
L 54.890625 0 
L 45.90625 0 
L 45.90625 32.71875 
Q 45.90625 40.484375 42.875 44.328125 
Q 39.84375 48.1875 33.796875 48.1875 
Q 26.515625 48.1875 22.3125 43.546875 
Q 18.109375 38.921875 18.109375 30.90625 
L 18.109375 0 
L 9.078125 0 
L 9.078125 54.6875 
L 18.109375 54.6875 
L 18.109375 46.1875 
Q 21.34375 51.125 25.703125 53.5625 
Q 30.078125 56 35.796875 56 
Q 45.21875 56 50.046875 50.171875 
Q 54.890625 44.34375 54.890625 33.015625 
z
" id="DejaVuSans-110"/>
      <path d="M 48.78125 52.59375 
L 48.78125 44.1875 
Q 44.96875 46.296875 41.140625 47.34375 
Q 37.3125 48.390625 33.40625 48.390625 
Q 24.65625 48.390625 19.8125 42.84375 
Q 14.984375 37.3125 14.984375 27.296875 
Q 14.984375 17.28125 19.8125 11.734375 
Q 24.65625 6.203125 33.40625 6.203125 
Q 37.3125 6.203125 41.140625 7.25 
Q 44.96875 8.296875 48.78125 10.40625 
L 48.78125 2.09375 
Q 45.015625 0.34375 40.984375 -0.53125 
Q 36.96875 -1.421875 32.421875 -1.421875 
Q 20.0625 -1.421875 12.78125 6.34375 
Q 5.515625 14.109375 5.515625 27.296875 
Q 5.515625 40.671875 12.859375 48.328125 
Q 20.21875 56 33.015625 56 
Q 37.15625 56 41.109375 55.140625 
Q 45.0625 54.296875 48.78125 52.59375 
z
" id="DejaVuSans-99"/>
      <path d="M 44.28125 53.078125 
L 44.28125 44.578125 
Q 40.484375 46.53125 36.375 47.5 
Q 32.28125 48.484375 27.875 48.484375 
Q 21.1875 48.484375 17.84375 46.4375 
Q 14.5 44.390625 14.5 40.28125 
Q 14.5 37.15625 16.890625 35.375 
Q 19.28125 33.59375 26.515625 31.984375 
L 29.59375 31.296875 
Q 39.15625 29.25 43.1875 25.515625 
Q 47.21875 21.78125 47.21875 15.09375 
Q 47.21875 7.46875 41.1875 3.015625 
Q 35.15625 -1.421875 24.609375 -1.421875 
Q 20.21875 -1.421875 15.453125 -0.5625 
Q 10.6875 0.296875 5.421875 2 
L 5.421875 11.28125 
Q 10.40625 8.6875 15.234375 7.390625 
Q 20.0625 6.109375 24.8125 6.109375 
Q 31.15625 6.109375 34.5625 8.28125 
Q 37.984375 10.453125 37.984375 14.40625 
Q 37.984375 18.0625 35.515625 20.015625 
Q 33.0625 21.96875 24.703125 23.78125 
L 21.578125 24.515625 
Q 13.234375 26.265625 9.515625 29.90625 
Q 5.8125 33.546875 5.8125 39.890625 
Q 5.8125 47.609375 11.28125 51.796875 
Q 16.75 56 26.8125 56 
Q 31.78125 56 36.171875 55.265625 
Q 40.578125 54.546875 44.28125 53.078125 
z
" id="DejaVuSans-115"/>
      <path d="M 8.015625 75.875 
L 15.828125 75.875 
Q 23.140625 64.359375 26.78125 53.3125 
Q 30.421875 42.28125 30.421875 31.390625 
Q 30.421875 20.453125 26.78125 9.375 
Q 23.140625 -1.703125 15.828125 -13.1875 
L 8.015625 -13.1875 
Q 14.5 -2 17.703125 9.0625 
Q 20.90625 20.125 20.90625 31.390625 
Q 20.90625 42.671875 17.703125 53.65625 
Q 14.5 64.65625 8.015625 75.875 
z
" id="DejaVuSans-41"/>
     </defs>
     <g style="fill:#555555;" transform="translate(132.288125 254.43625)scale(0.12 -0.12)">
      <use xlink:href="#DejaVuSans-72"/>
      <use x="75.195312" xlink:href="#DejaVuSans-101"/>
      <use x="136.71875" xlink:href="#DejaVuSans-105"/>
      <use x="164.501953" xlink:href="#DejaVuSans-103"/>
      <use x="227.978516" xlink:href="#DejaVuSans-104"/>
      <use x="291.357422" xlink:href="#DejaVuSans-116"/>
      <use x="330.566406" xlink:href="#DejaVuSans-32"/>
      <use x="362.353516" xlink:href="#DejaVuSans-40"/>
      <use x="401.367188" xlink:href="#DejaVuSans-105"/>
      <use x="429.150391" xlink:href="#DejaVuSans-110"/>
      <use x="492.529297" xlink:href="#DejaVuSans-99"/>
      <use x="547.509766" xlink:href="#DejaVuSans-104"/>
      <use x="610.888672" xlink:href="#DejaVuSans-101"/>
      <use x="672.412109" xlink:href="#DejaVuSans-115"/>
      <use x="724.511719" xlink:href="#DejaVuSans-41"/>
     </g>
    </g>
   </g>
   <g id="patch_3">
    <path clip-path="url(#pea34842d70)" d="M -4.869138 224.64 
L -0.771007 224.64 
L -0.771007 224.634711 
L -4.869138 224.634711 
z
" style="fill:#4b89b9;opacity:0.4;"/>
   </g>
   <g id="patch_4">
    <path clip-path="url(#pea34842d70)" d="M -0.771007 224.64 
L 3.327123 224.64 
L 3.327123 224.64 
L -0.771007 224.64 
z
" style="fill:#4b89b9;opacity:0.4;"/>
   </g>
   <g id="patch_5">
    <path clip-path="url(#pea34842d70)" d="M 3.327123 224.64 
L 7.425254 224.64 
L 7.425254 224.634711 
L 3.327123 224.634711 
z
" style="fill:#4b89b9;opacity:0.4;"/>
   </g>
   <g id="patch_6">
    <path clip-path="url(#pea34842d70)" d="M 7.425254 224.64 
L 11.523384 224.64 
L 11.523384 224.629422 
L 7.425254 224.629422 
z
" style="fill:#4b89b9;opacity:0.4;"/>
   </g>
   <g id="patch_7">
    <path clip-path="url(#pea34842d70)" d="M 11.523384 224.64 
L 15.621515 224.64 
L 15.621515 224.634711 
L 11.523384 224.634711 
z
" style="fill:#4b89b9;opacity:0.4;"/>
   </g>
   <g id="patch_8">
    <path clip-path="url(#pea34842d70)" d="M 15.621515 224.64 
L 19.719645 224.64 
L 19.719645 224.634711 
L 15.621515 224.634711 
z
" style="fill:#4b89b9;opacity:0.4;"/>
   </g>
   <g id="patch_9">
    <path clip-path="url(#pea34842d70)" d="M 19.719645 224.64 
L 23.817776 224.64 
L 23.817776 224.613556 
L 19.719645 224.613556 
z
" style="fill:#4b89b9;opacity:0.4;"/>
   </g>
   <g id="patch_10">
    <path clip-path="url(#pea34842d70)" d="M 23.817776 224.64 
L 27.915907 224.64 
L 27.915907 224.608267 
L 23.817776 224.608267 
z
" style="fill:#4b89b9;opacity:0.4;"/>
   </g>
   <g id="patch_11">
    <path clip-path="url(#pea34842d70)" d="M 27.915907 224.64 
L 32.014037 224.64 
L 32.014037 224.5924 
L 27.915907 224.5924 
z
" style="fill:#4b89b9;opacity:0.4;"/>
   </g>
   <g id="patch_12">
    <path clip-path="url(#pea34842d70)" d="M 32.014037 224.64 
L 36.112168 224.64 
L 36.112168 224.560667 
L 32.014037 224.560667 
z
" style="fill:#4b89b9;opacity:0.4;"/>
   </g>
   <g id="patch_13">
    <path clip-path="url(#pea34842d70)" d="M 36.112168 224.64 
L 40.210298 224.64 
L 40.210298 224.491912 
L 36.112168 224.491912 
z
" style="fill:#4b89b9;opacity:0.4;"/>
   </g>
   <g id="patch_14">
    <path clip-path="url(#pea34842d70)" d="M 40.210298 224.64 
L 44.308429 224.64 
L 44.308429 224.491912 
L 40.210298 224.491912 
z
" style="fill:#4b89b9;opacity:0.4;"/>
   </g>
   <g id="patch_15">
    <path clip-path="url(#pea34842d70)" d="M 44.308429 224.64 
L 48.406559 224.64 
L 48.406559 224.449601 
L 44.308429 224.449601 
z
" style="fill:#4b89b9;opacity:0.4;"/>
   </g>
   <g id="patch_16">
    <path clip-path="url(#pea34842d70)" d="M 48.406559 224.64 
L 52.50469 224.64 
L 52.50469 224.327957 
L 48.406559 224.327957 
z
" style="fill:#4b89b9;opacity:0.4;"/>
   </g>
   <g id="patch_17">
    <path clip-path="url(#pea34842d70)" d="M 52.50469 224.64 
L 56.60282 224.64 
L 56.60282 224.158713 
L 52.50469 224.158713 
z
" style="fill:#4b89b9;opacity:0.4;"/>
   </g>
   <g id="patch_18">
    <path clip-path="url(#pea34842d70)" d="M 56.60282 224.64 
L 60.700951 224.64 
L 60.700951 223.836092 
L 56.60282 223.836092 
z
" style="fill:#4b89b9;opacity:0.4;"/>
   </g>
   <g id="patch_19">
    <path clip-path="url(#pea34842d70)" d="M 60.700951 224.64 
L 64.799082 224.64 
L 64.799082 223.529337 
L 60.700951 223.529337 
z
" style="fill:#4b89b9;opacity:0.4;"/>
   </g>
   <g id="patch_20">
    <path clip-path="url(#pea34842d70)" d="M 64.799082 224.64 
L 68.897212 224.64 
L 68.897212 223.053339 
L 64.799082 223.053339 
z
" style="fill:#4b89b9;opacity:0.4;"/>
   </g>
   <g id="patch_21">
    <path clip-path="url(#pea34842d70)" d="M 68.897212 224.64 
L 72.995343 224.64 
L 72.995343 222.683118 
L 68.897212 222.683118 
z
" style="fill:#4b89b9;opacity:0.4;"/>
   </g>
   <g id="patch_22">
    <path clip-path="url(#pea34842d70)" d="M 72.995343 224.64 
L 77.093473 224.64 
L 77.093473 221.969121 
L 72.995343 221.969121 
z
" style="fill:#4b89b9;opacity:0.4;"/>
   </g>
   <g id="patch_23">
    <path clip-path="url(#pea34842d70)" d="M 77.093473 224.64 
L 81.191604 224.64 
L 81.191604 221.27099 
L 77.093473 221.27099 
z
" style="fill:#4b89b9;opacity:0.4;"/>
   </g>
   <g id="patch_24">
    <path clip-path="url(#pea34842d70)" d="M 81.191604 224.64 
L 85.289734 224.64 
L 85.289734 220.001661 
L 81.191604 220.001661 
z
" style="fill:#4b89b9;opacity:0.4;"/>
   </g>
   <g id="patch_25">
    <path clip-path="url(#pea34842d70)" d="M 85.289734 224.64 
L 89.387865 224.64 
L 89.387865 218.827532 
L 85.289734 218.827532 
z
" style="fill:#4b89b9;opacity:0.4;"/>
   </g>
   <g id="patch_26">
    <path clip-path="url(#pea34842d70)" d="M 89.387865 224.64 
L 93.485995 224.64 
L 93.485995 217.087493 
L 89.387865 217.087493 
z
" style="fill:#4b89b9;opacity:0.4;"/>
   </g>
   <g id="patch_27">
    <path clip-path="url(#pea34842d70)" d="M 93.485995 224.64 
L 97.584126 224.64 
L 97.584126 215.104167 
L 93.485995 215.104167 
z
" style="fill:#4b89b9;opacity:0.4;"/>
   </g>
   <g id="patch_28">
    <path clip-path="url(#pea34842d70)" d="M 97.584126 224.64 
L 101.682257 224.64 
L 101.682257 212.427999 
L 97.584126 212.427999 
z
" style="fill:#4b89b9;opacity:0.4;"/>
   </g>
   <g id="patch_29">
    <path clip-path="url(#pea34842d70)" d="M 101.682257 224.64 
L 105.780387 224.64 
L 105.780387 209.09601 
L 101.682257 209.09601 
z
" style="fill:#4b89b9;opacity:0.4;"/>
   </g>
   <g id="patch_30">
    <path clip-path="url(#pea34842d70)" d="M 105.780387 224.64 
L 109.878518 224.64 
L 109.878518 205.515445 
L 105.780387 205.515445 
z
" style="fill:#4b89b9;opacity:0.4;"/>
   </g>
   <g id="patch_31">
    <path clip-path="url(#pea34842d70)" d="M 109.878518 224.64 
L 113.976648 224.64 
L 113.976648 200.702573 
L 109.878518 200.702573 
z
" style="fill:#4b89b9;opacity:0.4;"/>
   </g>
   <g id="patch_32">
    <path clip-path="url(#pea34842d70)" d="M 113.976648 224.64 
L 118.074779 224.64 
L 118.074779 195.001171 
L 113.976648 195.001171 
z
" style="fill:#4b89b9;opacity:0.4;"/>
   </g>
   <g id="patch_33">
    <path clip-path="url(#pea34842d70)" d="M 118.074779 224.64 
L 122.172909 224.64 
L 122.172909 189.447857 
L 118.074779 189.447857 
z
" style="fill:#4b89b9;opacity:0.4;"/>
   </g>
   <g id="patch_34">
    <path clip-path="url(#pea34842d70)" d="M 122.172909 224.64 
L 126.27104 224.64 
L 126.27104 182.942547 
L 122.172909 182.942547 
z
" style="fill:#4b89b9;opacity:0.4;"/>
   </g>
   <g id="patch_35">
    <path clip-path="url(#pea34842d70)" d="M 126.27104 224.64 
L 130.369171 224.64 
L 130.369171 174.411599 
L 126.27104 174.411599 
z
" style="fill:#4b89b9;opacity:0.4;"/>
   </g>
   <g id="patch_36">
    <path clip-path="url(#pea34842d70)" d="M 130.369171 224.64 
L 134.467301 224.64 
L 134.467301 166.462427 
L 130.369171 166.462427 
z
" style="fill:#4b89b9;opacity:0.4;"/>
   </g>
   <g id="patch_37">
    <path clip-path="url(#pea34842d70)" d="M 134.467301 224.64 
L 138.565432 224.64 
L 138.565432 156.048642 
L 134.467301 156.048642 
z
" style="fill:#4b89b9;opacity:0.4;"/>
   </g>
   <g id="patch_38">
    <path clip-path="url(#pea34842d70)" d="M 138.565432 224.64 
L 142.663562 224.64 
L 142.663562 146.560409 
L 138.565432 146.560409 
z
" style="fill:#4b89b9;opacity:0.4;"/>
   </g>
   <g id="patch_39">
    <path clip-path="url(#pea34842d70)" d="M 142.663562 224.64 
L 146.761693 224.64 
L 146.761693 135.570136 
L 142.663562 135.570136 
z
" style="fill:#4b89b9;opacity:0.4;"/>
   </g>
   <g id="patch_40">
    <path clip-path="url(#pea34842d70)" d="M 146.761693 224.64 
L 150.859823 224.64 
L 150.859823 122.908581 
L 146.761693 122.908581 
z
" style="fill:#4b89b9;opacity:0.4;"/>
   </g>
   <g id="patch_41">
    <path clip-path="url(#pea34842d70)" d="M 150.859823 224.64 
L 154.957954 224.64 
L 154.957954 110.749468 
L 150.859823 110.749468 
z
" style="fill:#4b89b9;opacity:0.4;"/>
   </g>
   <g id="patch_42">
    <path clip-path="url(#pea34842d70)" d="M 154.957954 224.64 
L 159.056084 224.64 
L 159.056084 98.431689 
L 154.957954 98.431689 
z
" style="fill:#4b89b9;opacity:0.4;"/>
   </g>
   <g id="patch_43">
    <path clip-path="url(#pea34842d70)" d="M 159.056084 224.64 
L 163.154215 224.64 
L 163.154215 87.150529 
L 159.056084 87.150529 
z
" style="fill:#4b89b9;opacity:0.4;"/>
   </g>
   <g id="patch_44">
    <path clip-path="url(#pea34842d70)" d="M 163.154215 224.64 
L 167.252346 224.64 
L 167.252346 75.689547 
L 163.154215 75.689547 
z
" style="fill:#4b89b9;opacity:0.4;"/>
   </g>
   <g id="patch_45">
    <path clip-path="url(#pea34842d70)" d="M 167.252346 224.64 
L 171.350476 224.64 
L 171.350476 62.821726 
L 167.252346 62.821726 
z
" style="fill:#4b89b9;opacity:0.4;"/>
   </g>
   <g id="patch_46">
    <path clip-path="url(#pea34842d70)" d="M 171.350476 224.64 
L 175.448607 224.64 
L 175.448607 53.523892 
L 171.350476 53.523892 
z
" style="fill:#4b89b9;opacity:0.4;"/>
   </g>
   <g id="patch_47">
    <path clip-path="url(#pea34842d70)" d="M 175.448607 224.64 
L 179.546737 224.64 
L 179.546737 42.914419 
L 175.448607 42.914419 
z
" style="fill:#4b89b9;opacity:0.4;"/>
   </g>
   <g id="patch_48">
    <path clip-path="url(#pea34842d70)" d="M 179.546737 224.64 
L 183.644868 224.64 
L 183.644868 35.340756 
L 179.546737 35.340756 
z
" style="fill:#4b89b9;opacity:0.4;"/>
   </g>
   <g id="patch_49">
    <path clip-path="url(#pea34842d70)" d="M 183.644868 224.64 
L 187.742998 224.64 
L 187.742998 28.089715 
L 183.644868 28.089715 
z
" style="fill:#4b89b9;opacity:0.4;"/>
   </g>
   <g id="patch_50">
    <path clip-path="url(#pea34842d70)" d="M 187.742998 224.64 
L 191.841129 224.64 
L 191.841129 23.747553 
L 187.742998 23.747553 
z
" style="fill:#4b89b9;opacity:0.4;"/>
   </g>
   <g id="patch_51">
    <path clip-path="url(#pea34842d70)" d="M 191.841129 224.64 
L 195.939259 224.64 
L 195.939259 20.748763 
L 191.841129 20.748763 
z
" style="fill:#4b89b9;opacity:0.4;"/>
   </g>
   <g id="patch_52">
    <path clip-path="url(#pea34842d70)" d="M 195.939259 224.64 
L 200.03739 224.64 
L 200.03739 19.088058 
L 195.939259 19.088058 
z
" style="fill:#4b89b9;opacity:0.4;"/>
   </g>
   <g id="patch_53">
    <path clip-path="url(#pea34842d70)" d="M 200.03739 224.64 
L 204.135521 224.64 
L 204.135521 18.654371 
L 200.03739 18.654371 
z
" style="fill:#4b89b9;opacity:0.4;"/>
   </g>
   <g id="patch_54">
    <path clip-path="url(#pea34842d70)" d="M 204.135521 224.64 
L 208.233651 224.64 
L 208.233651 20.182854 
L 204.135521 20.182854 
z
" style="fill:#4b89b9;opacity:0.4;"/>
   </g>
   <g id="patch_55">
    <path clip-path="url(#pea34842d70)" d="M 208.233651 224.64 
L 212.331782 224.64 
L 212.331782 27.021363 
L 208.233651 27.021363 
z
" style="fill:#4b89b9;opacity:0.4;"/>
   </g>
   <g id="patch_56">
    <path clip-path="url(#pea34842d70)" d="M 212.331782 224.64 
L 216.429912 224.64 
L 216.429912 31.01446 
L 212.331782 31.01446 
z
" style="fill:#4b89b9;opacity:0.4;"/>
   </g>
   <g id="patch_57">
    <path clip-path="url(#pea34842d70)" d="M 216.429912 224.64 
L 220.528043 224.64 
L 220.528043 39.196343 
L 216.429912 39.196343 
z
" style="fill:#4b89b9;opacity:0.4;"/>
   </g>
   <g id="patch_58">
    <path clip-path="url(#pea34842d70)" d="M 220.528043 224.64 
L 224.626173 224.64 
L 224.626173 48.705731 
L 220.528043 48.705731 
z
" style="fill:#4b89b9;opacity:0.4;"/>
   </g>
   <g id="patch_59">
    <path clip-path="url(#pea34842d70)" d="M 224.626173 224.64 
L 228.724304 224.64 
L 228.724304 59.299339 
L 224.626173 59.299339 
z
" style="fill:#4b89b9;opacity:0.4;"/>
   </g>
   <g id="patch_60">
    <path clip-path="url(#pea34842d70)" d="M 228.724304 224.64 
L 232.822434 224.64 
L 232.822434 69.750146 
L 228.724304 69.750146 
z
" style="fill:#4b89b9;opacity:0.4;"/>
   </g>
   <g id="patch_61">
    <path clip-path="url(#pea34842d70)" d="M 232.822434 224.64 
L 236.920565 224.64 
L 236.920565 81.322194 
L 232.822434 81.322194 
z
" style="fill:#4b89b9;opacity:0.4;"/>
   </g>
   <g id="patch_62">
    <path clip-path="url(#pea34842d70)" d="M 236.920565 224.64 
L 241.018696 224.64 
L 241.018696 93.200997 
L 236.920565 93.200997 
z
" style="fill:#4b89b9;opacity:0.4;"/>
   </g>
   <g id="patch_63">
    <path clip-path="url(#pea34842d70)" d="M 241.018696 224.64 
L 245.116826 224.64 
L 245.116826 106.814549 
L 241.018696 106.814549 
z
" style="fill:#4b89b9;opacity:0.4;"/>
   </g>
   <g id="patch_64">
    <path clip-path="url(#pea34842d70)" d="M 245.116826 224.64 
L 249.214957 224.64 
L 249.214957 119.35446 
L 245.116826 119.35446 
z
" style="fill:#4b89b9;opacity:0.4;"/>
   </g>
   <g id="patch_65">
    <path clip-path="url(#pea34842d70)" d="M 249.214957 224.64 
L 253.313087 224.64 
L 253.313087 129.810557 
L 249.214957 129.810557 
z
" style="fill:#4b89b9;opacity:0.4;"/>
   </g>
   <g id="patch_66">
    <path clip-path="url(#pea34842d70)" d="M 253.313087 224.64 
L 257.411218 224.64 
L 257.411218 141.879758 
L 253.313087 141.879758 
z
" style="fill:#4b89b9;opacity:0.4;"/>
   </g>
   <g id="patch_67">
    <path clip-path="url(#pea34842d70)" d="M 257.411218 224.64 
L 261.509348 224.64 
L 261.509348 152.743098 
L 257.411218 152.743098 
z
" style="fill:#4b89b9;opacity:0.4;"/>
   </g>
   <g id="patch_68">
    <path clip-path="url(#pea34842d70)" d="M 261.509348 224.64 
L 265.607479 224.64 
L 265.607479 161.549067 
L 261.509348 161.549067 
z
" style="fill:#4b89b9;opacity:0.4;"/>
   </g>
   <g id="patch_69">
    <path clip-path="url(#pea34842d70)" d="M 265.607479 224.64 
L 269.705609 224.64 
L 269.705609 170.360325 
L 265.607479 170.360325 
z
" style="fill:#4b89b9;opacity:0.4;"/>
   </g>
   <g id="patch_70">
    <path clip-path="url(#pea34842d70)" d="M 269.705609 224.64 
L 273.80374 224.64 
L 273.80374 179.065805 
L 269.705609 179.065805 
z
" style="fill:#4b89b9;opacity:0.4;"/>
   </g>
   <g id="patch_71">
    <path clip-path="url(#pea34842d70)" d="M 273.80374 224.64 
L 277.901871 224.64 
L 277.901871 186.353868 
L 273.80374 186.353868 
z
" style="fill:#4b89b9;opacity:0.4;"/>
   </g>
   <g id="patch_72">
    <path clip-path="url(#pea34842d70)" d="M 277.901871 224.64 
L 282.000001 224.64 
L 282.000001 193.076022 
L 277.901871 193.076022 
z
" style="fill:#4b89b9;opacity:0.4;"/>
   </g>
   <g id="patch_73">
    <path clip-path="url(#pea34842d70)" d="M 282.000001 224.64 
L 286.098132 224.64 
L 286.098132 198.068716 
L 282.000001 198.068716 
z
" style="fill:#4b89b9;opacity:0.4;"/>
   </g>
   <g id="patch_74">
    <path clip-path="url(#pea34842d70)" d="M 286.098132 224.64 
L 290.196262 224.64 
L 290.196262 203.775407 
L 286.098132 203.775407 
z
" style="fill:#4b89b9;opacity:0.4;"/>
   </g>
   <g id="patch_75">
    <path clip-path="url(#pea34842d70)" d="M 290.196262 224.64 
L 294.294393 224.64 
L 294.294393 207.075662 
L 290.196262 207.075662 
z
" style="fill:#4b89b9;opacity:0.4;"/>
   </g>
   <g id="patch_76">
    <path clip-path="url(#pea34842d70)" d="M 294.294393 224.64 
L 298.392523 224.64 
L 298.392523 210.619205 
L 294.294393 210.619205 
z
" style="fill:#4b89b9;opacity:0.4;"/>
   </g>
   <g id="patch_77">
    <path clip-path="url(#pea34842d70)" d="M 298.392523 224.64 
L 302.490654 224.64 
L 302.490654 214.088704 
L 298.392523 214.088704 
z
" style="fill:#4b89b9;opacity:0.4;"/>
   </g>
   <g id="patch_78">
    <path clip-path="url(#pea34842d70)" d="M 302.490654 224.64 
L 306.588785 224.64 
L 306.588785 216.124919 
L 302.490654 216.124919 
z
" style="fill:#4b89b9;opacity:0.4;"/>
   </g>
   <g id="patch_79">
    <path clip-path="url(#pea34842d70)" d="M 306.588785 224.64 
L 310.686915 224.64 
L 310.686915 218.076512 
L 306.588785 218.076512 
z
" style="fill:#4b89b9;opacity:0.4;"/>
   </g>
   <g id="patch_80">
    <path clip-path="url(#pea34842d70)" d="M 310.686915 224.64 
L 314.785046 224.64 
L 314.785046 219.81655 
L 310.686915 219.81655 
z
" style="fill:#4b89b9;opacity:0.4;"/>
   </g>
   <g id="patch_81">
    <path clip-path="url(#pea34842d70)" d="M 314.785046 224.64 
L 318.883176 224.64 
L 318.883176 220.668058 
L 314.785046 220.668058 
z
" style="fill:#4b89b9;opacity:0.4;"/>
   </g>
   <g id="patch_82">
    <path clip-path="url(#pea34842d70)" d="M 318.883176 224.64 
L 322.981307 224.64 
L 322.981307 221.678233 
L 318.883176 221.678233 
z
" style="fill:#4b89b9;opacity:0.4;"/>
   </g>
   <g id="patch_83">
    <path clip-path="url(#pea34842d70)" d="M 322.981307 224.64 
L 327.079437 224.64 
L 327.079437 222.482141 
L 322.981307 222.482141 
z
" style="fill:#4b89b9;opacity:0.4;"/>
   </g>
   <g id="patch_84">
    <path clip-path="url(#pea34842d70)" d="M 327.079437 224.64 
L 331.177568 224.64 
L 331.177568 223.016317 
L 327.079437 223.016317 
z
" style="fill:#4b89b9;opacity:0.4;"/>
   </g>
   <g id="patch_85">
    <path clip-path="url(#pea34842d70)" d="M 331.177568 224.64 
L 335.275698 224.64 
L 335.275698 223.391827 
L 331.177568 223.391827 
z
" style="fill:#4b89b9;opacity:0.4;"/>
   </g>
   <g id="patch_86">
    <path clip-path="url(#pea34842d70)" d="M 335.275698 224.64 
L 339.373829 224.64 
L 339.373829 223.762048 
L 335.275698 223.762048 
z
" style="fill:#4b89b9;opacity:0.4;"/>
   </g>
   <g id="patch_87">
    <path clip-path="url(#pea34842d70)" d="M 339.373829 224.64 
L 343.47196 224.64 
L 343.47196 224.121691 
L 339.373829 224.121691 
z
" style="fill:#4b89b9;opacity:0.4;"/>
   </g>
   <g id="patch_88">
    <path clip-path="url(#pea34842d70)" d="M 343.47196 224.64 
L 347.57009 224.64 
L 347.57009 224.185157 
L 343.47196 224.185157 
z
" style="fill:#4b89b9;opacity:0.4;"/>
   </g>
   <g id="patch_89">
    <path clip-path="url(#pea34842d70)" d="M 347.57009 224.64 
L 351.668221 224.64 
L 351.668221 224.317379 
L 347.57009 224.317379 
z
" style="fill:#4b89b9;opacity:0.4;"/>
   </g>
   <g id="patch_90">
    <path clip-path="url(#pea34842d70)" d="M 351.668221 224.64 
L 355.766351 224.64 
L 355.766351 224.428445 
L 351.668221 224.428445 
z
" style="fill:#4b89b9;opacity:0.4;"/>
   </g>
   <g id="patch_91">
    <path clip-path="url(#pea34842d70)" d="M 355.766351 224.64 
L 359.864482 224.64 
L 359.864482 224.513067 
L 355.766351 224.513067 
z
" style="fill:#4b89b9;opacity:0.4;"/>
   </g>
   <g id="patch_92">
    <path clip-path="url(#pea34842d70)" d="M 359.864482 224.64 
L 363.962612 224.64 
L 363.962612 224.507778 
L 359.864482 224.507778 
z
" style="fill:#4b89b9;opacity:0.4;"/>
   </g>
   <g id="patch_93">
    <path clip-path="url(#pea34842d70)" d="M 363.962612 224.64 
L 368.060743 224.64 
L 368.060743 224.550089 
L 363.962612 224.550089 
z
" style="fill:#4b89b9;opacity:0.4;"/>
   </g>
   <g id="patch_94">
    <path clip-path="url(#pea34842d70)" d="M 368.060743 224.64 
L 372.158873 224.64 
L 372.158873 224.602978 
L 368.060743 224.602978 
z
" style="fill:#4b89b9;opacity:0.4;"/>
   </g>
   <g id="patch_95">
    <path clip-path="url(#pea34842d70)" d="M 372.158873 224.64 
L 376.257004 224.64 
L 376.257004 224.613556 
L 372.158873 224.613556 
z
" style="fill:#4b89b9;opacity:0.4;"/>
   </g>
   <g id="patch_96">
    <path clip-path="url(#pea34842d70)" d="M 376.257004 224.64 
L 380.355135 224.64 
L 380.355135 224.64 
L 376.257004 224.64 
z
" style="fill:#4b89b9;opacity:0.4;"/>
   </g>
   <g id="patch_97">
    <path clip-path="url(#pea34842d70)" d="M 380.355135 224.64 
L 384.453265 224.64 
L 384.453265 224.624133 
L 380.355135 224.624133 
z
" style="fill:#4b89b9;opacity:0.4;"/>
   </g>
   <g id="patch_98">
    <path clip-path="url(#pea34842d70)" d="M 384.453265 224.64 
L 388.551396 224.64 
L 388.551396 224.624133 
L 384.453265 224.624133 
z
" style="fill:#4b89b9;opacity:0.4;"/>
   </g>
   <g id="patch_99">
    <path clip-path="url(#pea34842d70)" d="M 388.551396 224.64 
L 392.649526 224.64 
L 392.649526 224.634711 
L 388.551396 224.634711 
z
" style="fill:#4b89b9;opacity:0.4;"/>
   </g>
   <g id="patch_100">
    <path clip-path="url(#pea34842d70)" d="M 392.649526 224.64 
L 396.747657 224.64 
L 396.747657 224.634711 
L 392.649526 224.634711 
z
" style="fill:#4b89b9;opacity:0.4;"/>
   </g>
   <g id="patch_101">
    <path clip-path="url(#pea34842d70)" d="M 396.747657 224.64 
L 400.845787 224.64 
L 400.845787 224.64 
L 396.747657 224.64 
z
" style="fill:#4b89b9;opacity:0.4;"/>
   </g>
   <g id="patch_102">
    <path clip-path="url(#pea34842d70)" d="M 400.845787 224.64 
L 404.943918 224.64 
L 404.943918 224.634711 
L 400.845787 224.634711 
z
" style="fill:#4b89b9;opacity:0.4;"/>
   </g>
   <g id="patch_103">
    <path clip-path="url(#pea34842d70)" d="M -31.807814 224.64 
L -28.208016 224.64 
L -28.208016 224.634711 
L -31.807814 224.634711 
z
" style="fill:#d2553e;opacity:0.4;"/>
   </g>
   <g id="patch_104">
    <path clip-path="url(#pea34842d70)" d="M -28.208016 224.64 
L -24.608218 224.64 
L -24.608218 224.629422 
L -28.208016 224.629422 
z
" style="fill:#d2553e;opacity:0.4;"/>
   </g>
   <g id="patch_105">
    <path clip-path="url(#pea34842d70)" d="M -24.608218 224.64 
L -21.00842 224.64 
L -21.00842 224.634711 
L -24.608218 224.634711 
z
" style="fill:#d2553e;opacity:0.4;"/>
   </g>
   <g id="patch_106">
    <path clip-path="url(#pea34842d70)" d="M -21.00842 224.64 
L -17.408622 224.64 
L -17.408622 224.629422 
L -21.00842 224.629422 
z
" style="fill:#d2553e;opacity:0.4;"/>
   </g>
   <g id="patch_107">
    <path clip-path="url(#pea34842d70)" d="M -17.408622 224.64 
L -13.808824 224.64 
L -13.808824 224.624133 
L -17.408622 224.624133 
z
" style="fill:#d2553e;opacity:0.4;"/>
   </g>
   <g id="patch_108">
    <path clip-path="url(#pea34842d70)" d="M -13.808824 224.64 
L -10.209026 224.64 
L -10.209026 224.618845 
L -13.808824 224.618845 
z
" style="fill:#d2553e;opacity:0.4;"/>
   </g>
   <g id="patch_109">
    <path clip-path="url(#pea34842d70)" d="M -10.209026 224.64 
L -6.609228 224.64 
L -6.609228 224.618845 
L -10.209026 224.618845 
z
" style="fill:#d2553e;opacity:0.4;"/>
   </g>
   <g id="patch_110">
    <path clip-path="url(#pea34842d70)" d="M -6.609228 224.64 
L -3.00943 224.64 
L -3.00943 224.597689 
L -6.609228 224.597689 
z
" style="fill:#d2553e;opacity:0.4;"/>
   </g>
   <g id="patch_111">
    <path clip-path="url(#pea34842d70)" d="M -3.00943 224.64 
L 0.590368 224.64 
L 0.590368 224.602978 
L -3.00943 224.602978 
z
" style="fill:#d2553e;opacity:0.4;"/>
   </g>
   <g id="patch_112">
    <path clip-path="url(#pea34842d70)" d="M 0.590368 224.64 
L 4.190166 224.64 
L 4.190166 224.587111 
L 0.590368 224.587111 
z
" style="fill:#d2553e;opacity:0.4;"/>
   </g>
   <g id="patch_113">
    <path clip-path="url(#pea34842d70)" d="M 4.190166 224.64 
L 7.789964 224.64 
L 7.789964 224.528934 
L 4.190166 224.528934 
z
" style="fill:#d2553e;opacity:0.4;"/>
   </g>
   <g id="patch_114">
    <path clip-path="url(#pea34842d70)" d="M 7.789964 224.64 
L 11.389762 224.64 
L 11.389762 224.45489 
L 7.789964 224.45489 
z
" style="fill:#d2553e;opacity:0.4;"/>
   </g>
   <g id="patch_115">
    <path clip-path="url(#pea34842d70)" d="M 11.389762 224.64 
L 14.98956 224.64 
L 14.98956 224.338534 
L 11.389762 224.338534 
z
" style="fill:#d2553e;opacity:0.4;"/>
   </g>
   <g id="patch_116">
    <path clip-path="url(#pea34842d70)" d="M 14.98956 224.64 
L 18.589358 224.64 
L 18.589358 224.327957 
L 14.98956 224.327957 
z
" style="fill:#d2553e;opacity:0.4;"/>
   </g>
   <g id="patch_117">
    <path clip-path="url(#pea34842d70)" d="M 18.589358 224.64 
L 22.189156 224.64 
L 22.189156 224.211602 
L 18.589358 224.211602 
z
" style="fill:#d2553e;opacity:0.4;"/>
   </g>
   <g id="patch_118">
    <path clip-path="url(#pea34842d70)" d="M 22.189156 224.64 
L 25.788954 224.64 
L 25.788954 223.788492 
L 22.189156 223.788492 
z
" style="fill:#d2553e;opacity:0.4;"/>
   </g>
   <g id="patch_119">
    <path clip-path="url(#pea34842d70)" d="M 25.788954 224.64 
L 29.388752 224.64 
L 29.388752 223.582226 
L 25.788954 223.582226 
z
" style="fill:#d2553e;opacity:0.4;"/>
   </g>
   <g id="patch_120">
    <path clip-path="url(#pea34842d70)" d="M 29.388752 224.64 
L 32.98855 224.64 
L 32.98855 223.238449 
L 29.388752 223.238449 
z
" style="fill:#d2553e;opacity:0.4;"/>
   </g>
   <g id="patch_121">
    <path clip-path="url(#pea34842d70)" d="M 32.98855 224.64 
L 36.588348 224.64 
L 36.588348 222.72014 
L 32.98855 222.72014 
z
" style="fill:#d2553e;opacity:0.4;"/>
   </g>
   <g id="patch_122">
    <path clip-path="url(#pea34842d70)" d="M 36.588348 224.64 
L 40.188146 224.64 
L 40.188146 221.984987 
L 36.588348 221.984987 
z
" style="fill:#d2553e;opacity:0.4;"/>
   </g>
   <g id="patch_123">
    <path clip-path="url(#pea34842d70)" d="M 40.188146 224.64 
L 43.787944 224.64 
L 43.787944 221.170501 
L 40.188146 221.170501 
z
" style="fill:#d2553e;opacity:0.4;"/>
   </g>
   <g id="patch_124">
    <path clip-path="url(#pea34842d70)" d="M 43.787944 224.64 
L 47.387742 224.64 
L 47.387742 219.848284 
L 43.787944 219.848284 
z
" style="fill:#d2553e;opacity:0.4;"/>
   </g>
   <g id="patch_125">
    <path clip-path="url(#pea34842d70)" d="M 47.387742 224.64 
L 50.98754 224.64 
L 50.98754 218.896287 
L 47.387742 218.896287 
z
" style="fill:#d2553e;opacity:0.4;"/>
   </g>
   <g id="patch_126">
    <path clip-path="url(#pea34842d70)" d="M 50.98754 224.64 
L 54.587338 224.64 
L 54.587338 217.039893 
L 50.98754 217.039893 
z
" style="fill:#d2553e;opacity:0.4;"/>
   </g>
   <g id="patch_127">
    <path clip-path="url(#pea34842d70)" d="M 54.587338 224.64 
L 58.187136 224.64 
L 58.187136 215.077723 
L 54.587338 215.077723 
z
" style="fill:#d2553e;opacity:0.4;"/>
   </g>
   <g id="patch_128">
    <path clip-path="url(#pea34842d70)" d="M 58.187136 224.64 
L 61.786934 224.64 
L 61.786934 212.020756 
L 58.187136 212.020756 
z
" style="fill:#d2553e;opacity:0.4;"/>
   </g>
   <g id="patch_129">
    <path clip-path="url(#pea34842d70)" d="M 61.786934 224.64 
L 65.386732 224.64 
L 65.386732 208.932055 
L 61.786934 208.932055 
z
" style="fill:#d2553e;opacity:0.4;"/>
   </g>
   <g id="patch_130">
    <path clip-path="url(#pea34842d70)" d="M 65.386732 224.64 
L 68.98653 224.64 
L 68.98653 205.124069 
L 65.386732 205.124069 
z
" style="fill:#d2553e;opacity:0.4;"/>
   </g>
   <g id="patch_131">
    <path clip-path="url(#pea34842d70)" d="M 68.98653 224.64 
L 72.586328 224.64 
L 72.586328 200.570352 
L 68.98653 200.570352 
z
" style="fill:#d2553e;opacity:0.4;"/>
   </g>
   <g id="patch_132">
    <path clip-path="url(#pea34842d70)" d="M 72.586328 224.64 
L 76.186126 224.64 
L 76.186126 195.202148 
L 72.586328 195.202148 
z
" style="fill:#d2553e;opacity:0.4;"/>
   </g>
   <g id="patch_133">
    <path clip-path="url(#pea34842d70)" d="M 76.186126 224.64 
L 79.785924 224.64 
L 79.785924 188.347772 
L 76.186126 188.347772 
z
" style="fill:#d2553e;opacity:0.4;"/>
   </g>
   <g id="patch_134">
    <path clip-path="url(#pea34842d70)" d="M 79.785924 224.64 
L 83.385722 224.64 
L 83.385722 181.726107 
L 79.785924 181.726107 
z
" style="fill:#d2553e;opacity:0.4;"/>
   </g>
   <g id="patch_135">
    <path clip-path="url(#pea34842d70)" d="M 83.385722 224.64 
L 86.98552 224.64 
L 86.98552 173.105248 
L 83.385722 173.105248 
z
" style="fill:#d2553e;opacity:0.4;"/>
   </g>
   <g id="patch_136">
    <path clip-path="url(#pea34842d70)" d="M 86.98552 224.64 
L 90.585318 224.64 
L 90.585318 164.621901 
L 86.98552 164.621901 
z
" style="fill:#d2553e;opacity:0.4;"/>
   </g>
   <g id="patch_137">
    <path clip-path="url(#pea34842d70)" d="M 90.585318 224.64 
L 94.185116 224.64 
L 94.185116 155.726021 
L 90.585318 155.726021 
z
" style="fill:#d2553e;opacity:0.4;"/>
   </g>
   <g id="patch_138">
    <path clip-path="url(#pea34842d70)" d="M 94.185116 224.64 
L 97.784914 224.64 
L 97.784914 145.375702 
L 94.185116 145.375702 
z
" style="fill:#d2553e;opacity:0.4;"/>
   </g>
   <g id="patch_139">
    <path clip-path="url(#pea34842d70)" d="M 97.784914 224.64 
L 101.384712 224.64 
L 101.384712 132.872812 
L 97.784914 132.872812 
z
" style="fill:#d2553e;opacity:0.4;"/>
   </g>
   <g id="patch_140">
    <path clip-path="url(#pea34842d70)" d="M 101.384712 224.64 
L 104.98451 224.64 
L 104.98451 121.031032 
L 101.384712 121.031032 
z
" style="fill:#d2553e;opacity:0.4;"/>
   </g>
   <g id="patch_141">
    <path clip-path="url(#pea34842d70)" d="M 104.98451 224.64 
L 108.584308 224.64 
L 108.584308 110.432136 
L 104.98451 110.432136 
z
" style="fill:#d2553e;opacity:0.4;"/>
   </g>
   <g id="patch_142">
    <path clip-path="url(#pea34842d70)" d="M 108.584308 224.64 
L 112.184106 224.64 
L 112.184106 98.140802 
L 108.584308 98.140802 
z
" style="fill:#d2553e;opacity:0.4;"/>
   </g>
   <g id="patch_143">
    <path clip-path="url(#pea34842d70)" d="M 112.184106 224.64 
L 115.783904 224.64 
L 115.783904 85.674934 
L 112.184106 85.674934 
z
" style="fill:#d2553e;opacity:0.4;"/>
   </g>
   <g id="patch_144">
    <path clip-path="url(#pea34842d70)" d="M 115.783904 224.64 
L 119.383702 224.64 
L 119.383702 74.240397 
L 115.783904 74.240397 
z
" style="fill:#d2553e;opacity:0.4;"/>
   </g>
   <g id="patch_145">
    <path clip-path="url(#pea34842d70)" d="M 119.383702 224.64 
L 122.9835 224.64 
L 122.9835 60.595112 
L 119.383702 60.595112 
z
" style="fill:#d2553e;opacity:0.4;"/>
   </g>
   <g id="patch_146">
    <path clip-path="url(#pea34842d70)" d="M 122.9835 224.64 
L 126.583298 224.64 
L 126.583298 51.683365 
L 122.9835 51.683365 
z
" style="fill:#d2553e;opacity:0.4;"/>
   </g>
   <g id="patch_147">
    <path clip-path="url(#pea34842d70)" d="M 126.583298 224.64 
L 130.183096 224.64 
L 130.183096 42.359087 
L 126.583298 42.359087 
z
" style="fill:#d2553e;opacity:0.4;"/>
   </g>
   <g id="patch_148">
    <path clip-path="url(#pea34842d70)" d="M 130.183096 224.64 
L 133.782894 224.64 
L 133.782894 32.156856 
L 130.183096 32.156856 
z
" style="fill:#d2553e;opacity:0.4;"/>
   </g>
   <g id="patch_149">
    <path clip-path="url(#pea34842d70)" d="M 133.782894 224.64 
L 137.382692 224.64 
L 137.382692 26.206877 
L 133.782894 26.206877 
z
" style="fill:#d2553e;opacity:0.4;"/>
   </g>
   <g id="patch_150">
    <path clip-path="url(#pea34842d70)" d="M 137.382692 224.64 
L 140.98249 224.64 
L 140.98249 21.002629 
L 137.382692 21.002629 
z
" style="fill:#d2553e;opacity:0.4;"/>
   </g>
   <g id="patch_151">
    <path clip-path="url(#pea34842d70)" d="M 140.98249 224.64 
L 144.582288 224.64 
L 144.582288 18.247128 
L 140.98249 18.247128 
z
" style="fill:#d2553e;opacity:0.4;"/>
   </g>
   <g id="patch_152">
    <path clip-path="url(#pea34842d70)" d="M 144.582288 224.64 
L 148.182086 224.64 
L 148.182086 17.554286 
L 144.582288 17.554286 
z
" style="fill:#d2553e;opacity:0.4;"/>
   </g>
   <g id="patch_153">
    <path clip-path="url(#pea34842d70)" d="M 148.182086 224.64 
L 151.781884 224.64 
L 151.781884 19.109214 
L 148.182086 19.109214 
z
" style="fill:#d2553e;opacity:0.4;"/>
   </g>
   <g id="patch_154">
    <path clip-path="url(#pea34842d70)" d="M 151.781884 224.64 
L 155.381682 224.64 
L 155.381682 20.785785 
L 151.781884 20.785785 
z
" style="fill:#d2553e;opacity:0.4;"/>
   </g>
   <g id="patch_155">
    <path clip-path="url(#pea34842d70)" d="M 155.381682 224.64 
L 158.98148 224.64 
L 158.98148 25.836657 
L 155.381682 25.836657 
z
" style="fill:#d2553e;opacity:0.4;"/>
   </g>
   <g id="patch_156">
    <path clip-path="url(#pea34842d70)" d="M 158.98148 224.64 
L 162.581278 224.64 
L 162.581278 32.246767 
L 158.98148 32.246767 
z
" style="fill:#d2553e;opacity:0.4;"/>
   </g>
   <g id="patch_157">
    <path clip-path="url(#pea34842d70)" d="M 162.581278 224.64 
L 166.181076 224.64 
L 166.181076 41.079181 
L 162.581278 41.079181 
z
" style="fill:#d2553e;opacity:0.4;"/>
   </g>
   <g id="patch_158">
    <path clip-path="url(#pea34842d70)" d="M 166.181076 224.64 
L 169.780874 224.64 
L 169.780874 51.376611 
L 166.181076 51.376611 
z
" style="fill:#d2553e;opacity:0.4;"/>
   </g>
   <g id="patch_159">
    <path clip-path="url(#pea34842d70)" d="M 169.780874 224.64 
L 173.380672 224.64 
L 173.380672 60.769644 
L 169.780874 60.769644 
z
" style="fill:#d2553e;opacity:0.4;"/>
   </g>
   <g id="patch_160">
    <path clip-path="url(#pea34842d70)" d="M 173.380672 224.64 
L 176.98047 224.64 
L 176.98047 71.262763 
L 173.380672 71.262763 
z
" style="fill:#d2553e;opacity:0.4;"/>
   </g>
   <g id="patch_161">
    <path clip-path="url(#pea34842d70)" d="M 176.98047 224.64 
L 180.580268 224.64 
L 180.580268 84.585427 
L 176.98047 84.585427 
z
" style="fill:#d2553e;opacity:0.4;"/>
   </g>
   <g id="patch_162">
    <path clip-path="url(#pea34842d70)" d="M 180.580268 224.64 
L 184.180066 224.64 
L 184.180066 96.723384 
L 180.580268 96.723384 
z
" style="fill:#d2553e;opacity:0.4;"/>
   </g>
   <g id="patch_163">
    <path clip-path="url(#pea34842d70)" d="M 184.180066 224.64 
L 187.779864 224.64 
L 187.779864 108.432943 
L 184.180066 108.432943 
z
" style="fill:#d2553e;opacity:0.4;"/>
   </g>
   <g id="patch_164">
    <path clip-path="url(#pea34842d70)" d="M 187.779864 224.64 
L 191.379662 224.64 
L 191.379662 119.052995 
L 187.779864 119.052995 
z
" style="fill:#d2553e;opacity:0.4;"/>
   </g>
   <g id="patch_165">
    <path clip-path="url(#pea34842d70)" d="M 191.379662 224.64 
L 194.97946 224.64 
L 194.97946 130.519265 
L 191.379662 130.519265 
z
" style="fill:#d2553e;opacity:0.4;"/>
   </g>
   <g id="patch_166">
    <path clip-path="url(#pea34842d70)" d="M 194.97946 224.64 
L 198.579258 224.64 
L 198.579258 142.313446 
L 194.97946 142.313446 
z
" style="fill:#d2553e;opacity:0.4;"/>
   </g>
   <g id="patch_167">
    <path clip-path="url(#pea34842d70)" d="M 198.579258 224.64 
L 202.179056 224.64 
L 202.179056 154.202826 
L 198.579258 154.202826 
z
" style="fill:#d2553e;opacity:0.4;"/>
   </g>
   <g id="patch_168">
    <path clip-path="url(#pea34842d70)" d="M 202.179056 224.64 
L 205.778854 224.64 
L 205.778854 164.140613 
L 202.179056 164.140613 
z
" style="fill:#d2553e;opacity:0.4;"/>
   </g>
   <g id="patch_169">
    <path clip-path="url(#pea34842d70)" d="M 205.778854 224.64 
L 209.378652 224.64 
L 209.378652 172.856671 
L 205.778854 172.856671 
z
" style="fill:#d2553e;opacity:0.4;"/>
   </g>
   <g id="patch_170">
    <path clip-path="url(#pea34842d70)" d="M 209.378652 224.64 
L 212.97845 224.64 
L 212.97845 179.959624 
L 209.378652 179.959624 
z
" style="fill:#d2553e;opacity:0.4;"/>
   </g>
   <g id="patch_171">
    <path clip-path="url(#pea34842d70)" d="M 212.97845 224.64 
L 216.578248 224.64 
L 216.578248 187.379909 
L 212.97845 187.379909 
z
" style="fill:#d2553e;opacity:0.4;"/>
   </g>
   <g id="patch_172">
    <path clip-path="url(#pea34842d70)" d="M 216.578248 224.64 
L 220.178046 224.64 
L 220.178046 194.012152 
L 216.578248 194.012152 
z
" style="fill:#d2553e;opacity:0.4;"/>
   </g>
   <g id="patch_173">
    <path clip-path="url(#pea34842d70)" d="M 220.178046 224.64 
L 223.777844 224.64 
L 223.777844 199.893376 
L 220.178046 199.893376 
z
" style="fill:#d2553e;opacity:0.4;"/>
   </g>
   <g id="patch_174">
    <path clip-path="url(#pea34842d70)" d="M 223.777844 224.64 
L 227.377642 224.64 
L 227.377642 204.314872 
L 223.777844 204.314872 
z
" style="fill:#d2553e;opacity:0.4;"/>
   </g>
   <g id="patch_175">
    <path clip-path="url(#pea34842d70)" d="M 227.377642 224.64 
L 230.97744 224.64 
L 230.97744 207.472327 
L 227.377642 207.472327 
z
" style="fill:#d2553e;opacity:0.4;"/>
   </g>
   <g id="patch_176">
    <path clip-path="url(#pea34842d70)" d="M 230.97744 224.64 
L 234.577238 224.64 
L 234.577238 211.676979 
L 230.97744 211.676979 
z
" style="fill:#d2553e;opacity:0.4;"/>
   </g>
   <g id="patch_177">
    <path clip-path="url(#pea34842d70)" d="M 234.577238 224.64 
L 238.177036 224.64 
L 238.177036 213.908882 
L 234.577238 213.908882 
z
" style="fill:#d2553e;opacity:0.4;"/>
   </g>
   <g id="patch_178">
    <path clip-path="url(#pea34842d70)" d="M 238.177036 224.64 
L 241.776834 224.64 
L 241.776834 216.902383 
L 238.177036 216.902383 
z
" style="fill:#d2553e;opacity:0.4;"/>
   </g>
   <g id="patch_179">
    <path clip-path="url(#pea34842d70)" d="M 241.776834 224.64 
L 245.376632 224.64 
L 245.376632 218.436155 
L 241.776834 218.436155 
z
" style="fill:#d2553e;opacity:0.4;"/>
   </g>
   <g id="patch_180">
    <path clip-path="url(#pea34842d70)" d="M 245.376632 224.64 
L 248.97643 224.64 
L 248.97643 219.869439 
L 245.376632 219.869439 
z
" style="fill:#d2553e;opacity:0.4;"/>
   </g>
   <g id="patch_181">
    <path clip-path="url(#pea34842d70)" d="M 248.97643 224.64 
L 252.576228 224.64 
L 252.576228 220.720947 
L 248.97643 220.720947 
z
" style="fill:#d2553e;opacity:0.4;"/>
   </g>
   <g id="patch_182">
    <path clip-path="url(#pea34842d70)" d="M 252.576228 224.64 
L 256.176026 224.64 
L 256.176026 221.667655 
L 252.576228 221.667655 
z
" style="fill:#d2553e;opacity:0.4;"/>
   </g>
   <g id="patch_183">
    <path clip-path="url(#pea34842d70)" d="M 256.176026 224.64 
L 259.775824 224.64 
L 259.775824 222.619652 
L 256.176026 222.619652 
z
" style="fill:#d2553e;opacity:0.4;"/>
   </g>
   <g id="patch_184">
    <path clip-path="url(#pea34842d70)" d="M 259.775824 224.64 
L 263.375622 224.64 
L 263.375622 223.005739 
L 259.775824 223.005739 
z
" style="fill:#d2553e;opacity:0.4;"/>
   </g>
   <g id="patch_185">
    <path clip-path="url(#pea34842d70)" d="M 263.375622 224.64 
L 266.97542 224.64 
L 266.97542 223.524048 
L 263.375622 223.524048 
z
" style="fill:#d2553e;opacity:0.4;"/>
   </g>
   <g id="patch_186">
    <path clip-path="url(#pea34842d70)" d="M 266.97542 224.64 
L 270.575218 224.64 
L 270.575218 223.825514 
L 266.97542 223.825514 
z
" style="fill:#d2553e;opacity:0.4;"/>
   </g>
   <g id="patch_187">
    <path clip-path="url(#pea34842d70)" d="M 270.575218 224.64 
L 274.175016 224.64 
L 274.175016 224.015913 
L 270.575218 224.015913 
z
" style="fill:#d2553e;opacity:0.4;"/>
   </g>
   <g id="patch_188">
    <path clip-path="url(#pea34842d70)" d="M 274.175016 224.64 
L 277.774814 224.64 
L 277.774814 224.211602 
L 274.175016 224.211602 
z
" style="fill:#d2553e;opacity:0.4;"/>
   </g>
   <g id="patch_189">
    <path clip-path="url(#pea34842d70)" d="M 277.774814 224.64 
L 281.374612 224.64 
L 281.374612 224.354401 
L 277.774814 224.354401 
z
" style="fill:#d2553e;opacity:0.4;"/>
   </g>
   <g id="patch_190">
    <path clip-path="url(#pea34842d70)" d="M 281.374612 224.64 
L 284.97441 224.64 
L 284.97441 224.460178 
L 281.374612 224.460178 
z
" style="fill:#d2553e;opacity:0.4;"/>
   </g>
   <g id="patch_191">
    <path clip-path="url(#pea34842d70)" d="M 284.97441 224.64 
L 288.574208 224.64 
L 288.574208 224.534223 
L 284.97441 224.534223 
z
" style="fill:#d2553e;opacity:0.4;"/>
   </g>
   <g id="patch_192">
    <path clip-path="url(#pea34842d70)" d="M 288.574208 224.64 
L 292.174006 224.64 
L 292.174006 224.555378 
L 288.574208 224.555378 
z
" style="fill:#d2553e;opacity:0.4;"/>
   </g>
   <g id="patch_193">
    <path clip-path="url(#pea34842d70)" d="M 292.174006 224.64 
L 295.773804 224.64 
L 295.773804 224.571245 
L 292.174006 224.571245 
z
" style="fill:#d2553e;opacity:0.4;"/>
   </g>
   <g id="patch_194">
    <path clip-path="url(#pea34842d70)" d="M 295.773804 224.64 
L 299.373602 224.64 
L 299.373602 224.581822 
L 295.773804 224.581822 
z
" style="fill:#d2553e;opacity:0.4;"/>
   </g>
   <g id="patch_195">
    <path clip-path="url(#pea34842d70)" d="M 299.373602 224.64 
L 302.9734 224.64 
L 302.9734 224.5924 
L 299.373602 224.5924 
z
" style="fill:#d2553e;opacity:0.4;"/>
   </g>
   <g id="patch_196">
    <path clip-path="url(#pea34842d70)" d="M 302.9734 224.64 
L 306.573198 224.64 
L 306.573198 224.629422 
L 302.9734 224.629422 
z
" style="fill:#d2553e;opacity:0.4;"/>
   </g>
   <g id="patch_197">
    <path clip-path="url(#pea34842d70)" d="M 306.573198 224.64 
L 310.172996 224.64 
L 310.172996 224.634711 
L 306.573198 224.634711 
z
" style="fill:#d2553e;opacity:0.4;"/>
   </g>
   <g id="patch_198">
    <path clip-path="url(#pea34842d70)" d="M 310.172996 224.64 
L 313.772794 224.64 
L 313.772794 224.634711 
L 310.172996 224.634711 
z
" style="fill:#d2553e;opacity:0.4;"/>
   </g>
   <g id="patch_199">
    <path clip-path="url(#pea34842d70)" d="M 313.772794 224.64 
L 317.372592 224.64 
L 317.372592 224.629422 
L 313.772794 224.629422 
z
" style="fill:#d2553e;opacity:0.4;"/>
   </g>
   <g id="patch_200">
    <path clip-path="url(#pea34842d70)" d="M 317.372592 224.64 
L 320.97239 224.64 
L 320.97239 224.64 
L 317.372592 224.64 
z
" style="fill:#d2553e;opacity:0.4;"/>
   </g>
   <g id="patch_201">
    <path clip-path="url(#pea34842d70)" d="M 320.97239 224.64 
L 324.572188 224.64 
L 324.572188 224.64 
L 320.97239 224.64 
z
" style="fill:#d2553e;opacity:0.4;"/>
   </g>
   <g id="patch_202">
    <path clip-path="url(#pea34842d70)" d="M 324.572188 224.64 
L 328.171986 224.64 
L 328.171986 224.624133 
L 324.572188 224.624133 
z
" style="fill:#d2553e;opacity:0.4;"/>
   </g>
   <g id="patch_203">
    <path d="M 10.7 224.64 
L 10.7 7.2 
" style="fill:none;stroke:#ffffff;stroke-linecap:square;stroke-linejoin:miter;"/>
   </g>
   <g id="patch_204">
    <path d="M 345.5 224.64 
L 345.5 7.2 
" style="fill:none;stroke:#ffffff;stroke-linecap:square;stroke-linejoin:miter;"/>
   </g>
   <g id="patch_205">
    <path d="M 10.7 224.64 
L 345.5 224.64 
" style="fill:none;stroke:#ffffff;stroke-linecap:square;stroke-linejoin:miter;"/>
   </g>
   <g id="patch_206">
    <path d="M 10.7 7.2 
L 345.5 7.2 
" style="fill:none;stroke:#ffffff;stroke-linecap:square;stroke-linejoin:miter;"/>
   </g>
  </g>
 </g>
 <defs>
  <clipPath id="pea34842d70">
   <rect height="217.44" width="334.8" x="10.7" y="7.2"/>
  </clipPath>
 </defs>
</svg>
